<svg width="124" height="26" viewBox="0 0 124 26" fill="none" xmlns="http://www.w3.org/2000/svg">
<mask id="mask0_209_1528" style="mask-type:alpha" maskUnits="userSpaceOnUse" x="0" y="0" width="35" height="26">
<path fill-rule="evenodd" clip-rule="evenodd" d="M29.682 0L32.341 1.51522L35 3.03017V19.94V22.9699L32.341 24.4848L29.682 25.9998L27.0227 24.4848L24.3637 22.9699V19.94V3.03017L27.0227 1.51522L29.682 0Z" fill="url(#paint0_linear_209_1528)"/>
<path fill-rule="evenodd" clip-rule="evenodd" d="M5.31829 13.8804L7.97729 15.3953L10.6366 16.9103V19.9401V22.97L7.97729 24.485L5.31829 25.9999L2.65929 24.485L0 22.97V19.9401V16.9103L2.65929 15.3953L5.31829 13.8804Z" fill="#EE2463"/>
<path fill-rule="evenodd" clip-rule="evenodd" d="M5.31829 0L7.97729 1.51522L22.82 9.97113V13.001V16.0312L20.1608 17.5461L17.5018 19.0611L2.65929 10.6049L0 9.08994V6.06005V3.03017L2.65929 1.51522L5.31829 0Z" fill="url(#paint1_linear_209_1528)"/>
</mask>
<g mask="url(#mask0_209_1528)">
<rect x="-3.74609" y="-2.87793" width="42.4551" height="31.7722" fill="url(#paint2_linear_209_1528)"/>
</g>
<path fill-rule="evenodd" clip-rule="evenodd" d="M69.9582 7.94923L74.5262 20.8574H75.9005C75.6905 21.4467 75.3228 21.9636 74.8141 22.326C74.3022 22.6901 73.693 22.8661 73.0694 22.8661H72.4078V26H73.0694C74.3353 26 75.5589 25.6216 76.5947 24.8844C77.6314 24.1464 78.3966 23.1086 78.8229 21.9032L82.6938 10.9645H84.3063V12.6833V14.8298V17.4031C84.3063 19.303 85.8449 20.8574 87.7252 20.8574H90.8647V18.0553H88.0663C87.7113 18.0553 87.4206 17.7615 87.4206 17.4028V14.8295V12.683V10.9642H90.8647V7.94923H87.4206V4.58502L84.3066 5.26781V7.94923H83.7614H82.0413H80.469L76.8597 18.1471L73.2508 7.94923H69.9582ZM107.407 2L108.33 2.53891L109.254 3.07754V4.15509V5.23263L108.33 5.77154L107.407 6.31017L106.484 5.77154L105.56 5.23263V4.15509V3.07754L106.484 2.53891L107.407 2ZM120.886 20.8571H124V7.94923H120.886V9.73274L120.667 9.45498C119.62 8.12228 118.183 7.58108 116.519 7.58108C114.77 7.58108 113.318 8.27532 112.13 9.5674C110.881 10.927 110.314 12.5595 110.314 14.4033C110.314 16.2563 110.872 17.9051 112.13 19.2653C113.318 20.5505 114.776 21.2256 116.519 21.2256C118.183 21.2256 119.62 20.6844 120.667 19.3517L120.886 19.0739V20.8571ZM114.479 17.174C113.738 16.4151 113.428 15.4606 113.428 14.4033C113.428 13.3504 113.743 12.4127 114.479 11.659C115.209 10.9124 116.108 10.5697 117.144 10.5697C118.179 10.5697 119.084 10.9075 119.807 11.6573C120.564 12.4021 120.886 13.3438 120.886 14.4033C120.886 15.47 120.559 16.416 119.809 17.1746C119.079 17.912 118.171 18.2369 117.144 18.2369C116.118 18.2369 115.205 17.9166 114.479 17.174ZM108.964 20.8571V7.94923H105.85V20.8574H108.964V20.8571ZM95.5136 2.82553L92.3996 3.50833V20.8571H95.5136V13.877C95.5136 12.9817 95.6891 12.0337 96.3147 11.3586C96.8956 10.7319 97.6628 10.4905 98.5001 10.4905C99.245 10.4905 99.9445 10.6913 100.476 11.2379C101.021 11.7997 101.201 12.5566 101.201 13.3244V20.8571H104.315V12.9036C104.315 11.4476 103.956 10.0623 102.942 8.98987C102.014 8.00787 100.853 7.58108 99.5156 7.58108C97.9869 7.58108 96.6046 8.03504 95.738 9.36717L95.5133 9.713V2.82553H95.5136ZM65.3645 4.33015L59.9485 12.3564L54.5061 4.33015H51V20.8574H54.3484V9.72673L59.9485 17.9809L65.5483 9.70184V20.8571H68.8706V4.33015H65.3645Z" fill="white"/>
<defs>
<linearGradient id="paint0_linear_209_1528" x1="41.5819" y1="-1.21814e-06" x2="13.0277" y2="2.70516" gradientUnits="userSpaceOnUse">
<stop offset="0.0690572" stop-color="#4A48E5"/>
<stop offset="0.989583" stop-color="#EE2463"/>
</linearGradient>
<linearGradient id="paint1_linear_209_1528" x1="-14.1213" y1="-8.93046e-07" x2="43.2789" y2="15.9143" gradientUnits="userSpaceOnUse">
<stop offset="0.0690572" stop-color="#4A48E5"/>
<stop offset="0.989583" stop-color="#EE2463"/>
</linearGradient>
<linearGradient id="paint2_linear_209_1528" x1="-14.716" y1="-6.39255" x2="60.6924" y2="23.0388" gradientUnits="userSpaceOnUse">
<stop offset="0.274803" stop-color="#6B41CB"/>
<stop offset="0.829189" stop-color="#E13168"/>
</linearGradient>
</defs>
</svg>
